HIERARCHY
ROOT Hips
{
	OFFSET 0.000000 97.167313 0.000000
	CHANNELS 6 Xposition Yposition Zposition Xrotation Yrotation Zrotation
	JOINT Spine
	{
		OFFSET 0.000000 13.784798 0.064400
		CHANNELS 3 Xrotation Yrotation Zrotation
		JOINT Spine1
		{
			OFFSET 0.000000 12.037903 0.404700
			CHANNELS 3 Xrotation Yrotation Zrotation
			JOINT Spine2
			{
				OFFSET 0.000000 17.795601 0.420200
				CHANNELS 3 Xrotation Yrotation Zrotation
				JOINT Neck
				{
					OFFSET 0.000000 39.131302 11.954600
					CHANNELS 3 Xrotation Yrotation Zrotation
					JOINT Head
					{
						OFFSET 0.000000 14.456192 15.627699
						CHANNELS 3 Xrotation Yrotation Zrotation
						JOINT HeadTop_End
						{
							OFFSET 0.000000 15.703506 7.603401
							CHANNELS 3 Xrotation Yrotation Zrotation
							End Site
							{
								OFFSET 0.000000 17.447403 0.000000
							}
						}
					}
				}
				JOINT LeftShoulder
				{
					OFFSET 17.399500 24.608795 1.168800
					CHANNELS 3 Xrotation Yrotation Zrotation
					JOINT LeftArm
					{
						OFFSET 18.980635 5.765305 1.818600
						CHANNELS 3 Xrotation Yrotation Zrotation
						JOINT LeftForeArm
						{
							OFFSET 49.290169 0.000000 0.000000
							CHANNELS 3 Xrotation Yrotation Zrotation
							JOINT LeftHand
							{
								OFFSET 31.562012 0.000000 0.000000
								CHANNELS 3 Xrotation Yrotation Zrotation
								JOINT LeftHandThumb1
								{
									OFFSET 6.133995 -4.388519 7.076070
									CHANNELS 3 Xrotation Yrotation Zrotation
									JOINT LeftHandThumb2
									{
										OFFSET 6.037666 -3.485840 3.485847
										CHANNELS 3 Xrotation Yrotation Zrotation
										JOINT LeftHandThumb3
										{
											OFFSET 6.496506 -3.750763 3.750761
											CHANNELS 3 Xrotation Yrotation Zrotation
											JOINT LeftHandThumb4
											{
												OFFSET 5.616882 -3.242905 3.242910
												CHANNELS 3 Xrotation Yrotation Zrotation
												End Site
												{
													OFFSET -1.254608 7.132141 0.375429
												}
											}
										}
									}
								}
								JOINT LeftHandPinky1
								{
									OFFSET 18.920792 -0.453171 -11.426712
									CHANNELS 3 Xrotation Yrotation Zrotation
									JOINT LeftHandPinky2
									{
										OFFSET 4.919586 0.000000 0.000000
										CHANNELS 3 Xrotation Yrotation Zrotation
										JOINT LeftHandPinky3
										{
											OFFSET 5.233047 0.000000 0.000000
											CHANNELS 3 Xrotation Yrotation Zrotation
											JOINT LeftHandPinky4
											{
												OFFSET 5.571716 0.000000 0.000000
												CHANNELS 3 Xrotation Yrotation Zrotation
												End Site
												{
													OFFSET -3.459808 4.342407 -0.466164
												}
											}
										}
									}
								}
								JOINT LeftHandRing1
								{
									OFFSET 22.726120 -0.094986 -6.500475
									CHANNELS 3 Xrotation Yrotation Zrotation
									JOINT LeftHandRing2
									{
										OFFSET 6.408615 0.000000 0.000000
										CHANNELS 3 Xrotation Yrotation Zrotation
										JOINT LeftHandRing3
										{
											OFFSET 6.150223 0.000000 0.000000
											CHANNELS 3 Xrotation Yrotation Zrotation
											JOINT LeftHandRing4
											{
												OFFSET 6.145386 0.000000 0.000000
												CHANNELS 3 Xrotation Yrotation Zrotation
												End Site
												{
													OFFSET -3.671402 4.923981 -0.202372
												}
											}
										}
									}
								}
								JOINT LeftHandMiddle1
								{
									OFFSET 23.373947 0.000000 0.000001
									CHANNELS 3 Xrotation Yrotation Zrotation
									JOINT LeftHandMiddle2
									{
										OFFSET 6.996567 0.000000 0.000000
										CHANNELS 3 Xrotation Yrotation Zrotation
										JOINT LeftHandMiddle3
										{
											OFFSET 7.015945 0.000000 0.000000
											CHANNELS 3 Xrotation Yrotation Zrotation
											JOINT LeftHandMiddle4
											{
												OFFSET 7.721573 0.000000 0.000000
												CHANNELS 3 Xrotation Yrotation Zrotation
												End Site
												{
													OFFSET -4.651108 6.158463 0.251582
												}
											}
										}
									}
								}
								JOINT LeftHandIndex1
								{
									OFFSET 21.310577 -0.490082 6.209344
									CHANNELS 3 Xrotation Yrotation Zrotation
									JOINT LeftHandIndex2
									{
										OFFSET 7.536453 0.000000 0.000000
										CHANNELS 3 Xrotation Yrotation Zrotation
										JOINT LeftHandIndex3
										{
											OFFSET 7.512344 0.000000 0.000000
											CHANNELS 3 Xrotation Yrotation Zrotation
											JOINT LeftHandIndex4
											{
												OFFSET 10.212402 0.000000 0.000001
												CHANNELS 3 Xrotation Yrotation Zrotation
												End Site
												{
													OFFSET -5.180801 8.690506 1.388433
												}
											}
										}
									}
								}
							}
						}
					}
				}
				JOINT RightShoulder
				{
					OFFSET -17.399500 24.608795 1.168800
					CHANNELS 3 Xrotation Yrotation Zrotation
					JOINT RightArm
					{
						OFFSET -18.980635 5.765305 1.818600
						CHANNELS 3 Xrotation Yrotation Zrotation
						JOINT RightForeArm
						{
							OFFSET -49.290169 0.000000 0.000000
							CHANNELS 3 Xrotation Yrotation Zrotation
							JOINT RightHand
							{
								OFFSET -31.562012 0.000000 0.000000
								CHANNELS 3 Xrotation Yrotation Zrotation
								JOINT RightHandThumb1
								{
									OFFSET -6.133995 -4.388519 7.076070
									CHANNELS 3 Xrotation Yrotation Zrotation
									JOINT RightHandThumb2
									{
										OFFSET -6.037666 -3.485840 3.485847
										CHANNELS 3 Xrotation Yrotation Zrotation
										JOINT RightHandThumb3
										{
											OFFSET -6.496506 -3.750763 3.750761
											CHANNELS 3 Xrotation Yrotation Zrotation
											JOINT RightHandThumb4
											{
												OFFSET -5.616882 -3.242905 3.242910
												CHANNELS 3 Xrotation Yrotation Zrotation
												End Site
												{
													OFFSET 1.254608 7.132141 0.375429
												}
											}
										}
									}
								}
								JOINT RightHandIndex1
								{
									OFFSET -21.310577 -0.490082 6.209344
									CHANNELS 3 Xrotation Yrotation Zrotation
									JOINT RightHandIndex2
									{
										OFFSET -7.536453 0.000000 0.000000
										CHANNELS 3 Xrotation Yrotation Zrotation
										JOINT RightHandIndex3
										{
											OFFSET -7.512344 0.000000 0.000000
											CHANNELS 3 Xrotation Yrotation Zrotation
											JOINT RightHandIndex4
											{
												OFFSET -10.212402 0.000000 0.000001
												CHANNELS 3 Xrotation Yrotation Zrotation
												End Site
												{
													OFFSET 5.180801 8.690506 1.388433
												}
											}
										}
									}
								}
								JOINT RightHandMiddle1
								{
									OFFSET -23.373947 0.000000 0.000001
									CHANNELS 3 Xrotation Yrotation Zrotation
									JOINT RightHandMiddle2
									{
										OFFSET -6.996567 0.000000 0.000000
										CHANNELS 3 Xrotation Yrotation Zrotation
										JOINT RightHandMiddle3
										{
											OFFSET -7.015945 0.000000 0.000000
											CHANNELS 3 Xrotation Yrotation Zrotation
											JOINT RightHandMiddle4
											{
												OFFSET -7.721573 0.000000 0.000000
												CHANNELS 3 Xrotation Yrotation Zrotation
												End Site
												{
													OFFSET 4.651108 6.158463 0.251582
												}
											}
										}
									}
								}
								JOINT RightHandRing1
								{
									OFFSET -22.726120 -0.094986 -6.500475
									CHANNELS 3 Xrotation Yrotation Zrotation
									JOINT RightHandRing2
									{
										OFFSET -6.408615 0.000000 0.000000
										CHANNELS 3 Xrotation Yrotation Zrotation
										JOINT RightHandRing3
										{
											OFFSET -6.150223 0.000000 0.000000
											CHANNELS 3 Xrotation Yrotation Zrotation
											JOINT RightHandRing4
											{
												OFFSET -6.145386 0.000000 0.000000
												CHANNELS 3 Xrotation Yrotation Zrotation
												End Site
												{
													OFFSET 3.671402 4.923981 -0.202372
												}
											}
										}
									}
								}
								JOINT RightHandPinky1
								{
									OFFSET -18.920792 -0.453171 -11.426712
									CHANNELS 3 Xrotation Yrotation Zrotation
									JOINT RightHandPinky2
									{
										OFFSET -4.919586 0.000000 0.000000
										CHANNELS 3 Xrotation Yrotation Zrotation
										JOINT RightHandPinky3
										{
											OFFSET -5.233047 0.000000 0.000000
											CHANNELS 3 Xrotation Yrotation Zrotation
											JOINT RightHandPinky4
											{
												OFFSET -5.571716 0.000000 0.000000
												CHANNELS 3 Xrotation Yrotation Zrotation
												End Site
												{
													OFFSET 3.459808 4.342407 -0.466164
												}
											}
										}
									}
								}
							}
						}
					}
				}
			}
		}
	}
	JOINT LeftUpLeg
	{
		OFFSET 19.899099 -7.885101 -3.429500
		CHANNELS 3 Xrotation Yrotation Zrotation
		JOINT LeftLeg
		{
			OFFSET 1.745560 -36.997807 10.304700
			CHANNELS 3 Xrotation Yrotation Zrotation
			JOINT LeftFoot
			{
				OFFSET -1.745558 -29.803308 -13.615400
				CHANNELS 3 Xrotation Yrotation Zrotation
				JOINT LeftToeBase
				{
					OFFSET 1.181900 -18.539904 15.226099
					CHANNELS 3 Xrotation Yrotation Zrotation
					JOINT LeftToe_End
					{
						OFFSET -0.863701 1.402801 16.534700
						CHANNELS 3 Xrotation Yrotation Zrotation
						End Site
						{
							OFFSET 0.000000 16.616566 0.000000
						}
					}
				}
			}
		}
	}
	JOINT RightUpLeg
	{
		OFFSET -19.899099 -7.885101 -3.429500
		CHANNELS 3 Xrotation Yrotation Zrotation
		JOINT RightLeg
		{
			OFFSET -1.745560 -36.997807 10.304700
			CHANNELS 3 Xrotation Yrotation Zrotation
			JOINT RightFoot
			{
				OFFSET 1.745558 -29.803308 -13.615400
				CHANNELS 3 Xrotation Yrotation Zrotation
				JOINT RightToeBase
				{
					OFFSET -1.181900 -18.539904 15.226099
					CHANNELS 3 Xrotation Yrotation Zrotation
					JOINT RightToe_End
					{
						OFFSET 0.863701 1.402801 16.534700
						CHANNELS 3 Xrotation Yrotation Zrotation
						End Site
						{
							OFFSET 0.000000 16.616566 0.000000
						}
					}
				}
			}
		}
	}
}
MOTION
Frames: 4
Frame Time: 0.033333
-4.149425 88.618103 13.253757 170.006810 -61.253410 166.891629 10.616320 -0.973668 -0.017880 -2.403771 -1.934898 2.598075 -2.366599 -1.660422 2.740455 -3.960600 20.734470 4.349144 -0.248097 22.507058 -4.405847 -0.000000 0.000000 0.000000 0.682472 3.156517 -11.245161 -4.325122 -9.064831 -59.694453 6.091877 -15.210392 -6.968463 -0.358403 0.840363 15.840706 -4.165136 10.009255 11.992587 6.203615 10.649841 -0.253889 1.895366 8.758053 4.128475 0.000000 0.000001 -0.000004 -4.713210 5.052953 -26.004243 0.030439 0.186385 -30.738621 0.018711 0.106061 -17.439717 0.000001 0.000001 -0.000004 -2.867560 4.628692 -16.433442 -0.036544 0.248033 -29.304042 0.096018 0.510288 -17.317605 -0.000003 -0.000002 0.000003 -1.079946 1.663669 -17.081123 0.072012 0.481629 -24.716867 0.023473 0.042648 -14.216036 0.000002 -0.000002 0.000004 2.162528 -0.106329 -12.743246 -0.003115 0.203236 -18.783760 0.036399 0.138808 -15.908772 0.000002 0.000000 -0.000001 0.708384 1.590614 16.728216 17.323148 25.226081 44.877184 15.279266 24.260584 -5.817446 -24.614216 1.136911 -17.422843 -0.472354 -9.197414 -6.065791 7.395551 -11.609002 1.227545 1.116373 -8.689080 -5.093582 -0.000001 -0.000004 -0.000005 2.315740 -3.369950 8.519047 0.013718 -0.262140 18.593870 0.032730 -0.191022 14.517591 -0.000002 -0.000001 -0.000001 -1.980365 -5.374208 13.700567 0.108392 -0.651234 26.781225 0.021060 -0.055360 11.761947 0.000001 0.000001 -0.000002 -4.946865 -9.701521 11.022517 -0.035286 -0.347176 32.740751 0.124344 -0.708220 15.570593 0.000000 -0.000002 -0.000000 -6.493764 -10.868148 23.426043 0.059526 -0.257015 34.170289 0.028132 -0.146185 15.120435 0.000002 -0.000001 0.000004 2.466828 12.435748 23.024971 20.258044 17.404615 -0.084392 -11.716316 11.339381 -30.176681 -7.184860 1.813536 -2.921349 -0.000000 -0.000001 0.000000 -24.285433 -17.390333 -19.039945 22.175217 -15.767944 4.156776 -1.244502 -2.884806 10.947155 -1.034615 -11.352994 6.063783 0.000000 0.000001 -0.000000 
-3.876719 87.836449 10.727957 170.753746 -57.904752 167.848361 10.552658 -1.235797 -0.028815 -2.293669 -2.384888 3.110721 -2.239946 -2.051971 3.283835 -4.153339 17.193348 2.519408 -1.267971 18.077836 -2.282153 0.000000 0.000000 0.000000 0.780507 3.657858 -12.703581 -2.821379 -10.305984 -59.554933 6.990878 -16.126253 -6.017039 -4.045237 0.963250 16.065394 -4.311596 10.624168 11.859224 5.714601 10.261726 0.142078 2.191737 8.715260 3.713541 0.000001 -0.000004 -0.000004 -4.138176 2.894270 -28.493997 0.023931 0.153753 -30.834869 0.017130 0.088169 -19.918059 -0.000002 -0.000000 -0.000000 -2.260543 2.709078 -19.762761 -0.030956 0.204885 -29.075695 0.092504 0.417984 -19.239144 -0.000004 -0.000002 0.000001 -0.819165 0.339575 -19.296201 0.060322 0.396699 -24.710006 0.022982 0.035725 -16.094412 0.000001 -0.000001 0.000001 2.003084 -1.285226 -15.026575 -0.009804 0.177970 -19.410242 0.032806 0.118327 -17.037154 -0.000001 0.000001 0.000002 0.704850 1.242730 15.692146 16.408286 25.865108 45.368681 15.568926 24.443649 -6.108546 -24.101692 1.964134 -17.625399 -0.477226 -9.313379 -6.054933 7.367062 -11.606820 1.190154 1.109316 -8.599513 -5.041401 -0.000001 0.000000 -0.000000 2.291693 -3.227481 8.627719 0.014339 -0.263545 18.579166 0.033370 -0.192219 14.544432 -0.000000 0.000002 0.000001 -1.980001 -5.205205 13.782289 0.106987 -0.645208 26.695388 0.021745 -0.055550 11.831844 0.000001 0.000000 -0.000004 -4.935490 -9.464918 11.174613 -0.035876 -0.348280 32.613750 0.125925 -0.709763 15.622108 -0.000002 -0.000000 -0.000003 -6.520410 -10.588982 23.486632 0.059909 -0.258507 34.050153 0.028842 -0.147457 15.199056 0.000000 -0.000001 0.000004 3.992729 12.156724 25.285849 21.544990 17.956608 -0.515812 -7.478352 12.745317 -35.612265 -8.340428 1.298074 -2.144219 -0.000000 0.000000 -0.000000 -28.510919 -23.002334 -17.681399 24.176781 -9.616491 2.241130 -1.460332 -0.574649 8.589286 -0.575274 -10.518145 5.989621 -0.000000 0.000001 -0.000000 
-3.592463 87.109886 8.032149 172.333801 -54.312503 169.171628 11.086041 -1.359033 0.814780 -2.250669 -2.488994 2.609661 -2.208131 -2.169485 2.797669 -4.836449 13.232706 3.194315 -1.025849 14.386754 -2.056016 -0.000000 0.000003 -0.000001 0.690270 3.494202 -11.298185 -2.552598 -10.720486 -61.155929 5.762881 -14.696851 -6.078415 -4.856069 0.189410 16.482302 -4.465427 11.266606 11.724457 5.205287 9.854475 0.549049 2.500210 8.667741 3.281162 0.000001 -0.000000 -0.000001 -3.706432 0.599929 -31.022849 0.016771 0.119642 -30.938725 0.013583 0.069651 -22.505712 0.000001 0.000000 -0.000006 -1.832029 0.644754 -23.173056 -0.024351 0.159847 -28.839750 0.081593 0.322141 -21.244690 0.000001 0.000002 0.000003 -0.637671 -1.056895 -21.586762 0.048090 0.307975 -24.702284 0.021708 0.027515 -18.053769 0.000001 -0.000001 0.000001 1.755819 -2.498191 -17.408663 -0.017454 0.151676 -20.063317 0.028043 0.097046 -18.213420 -0.000000 0.000001 0.000001 0.756845 0.584608 16.389560 15.836962 26.504260 45.479593 15.191620 25.014868 -6.358932 -23.242323 2.562705 -18.595914 -0.482221 -9.429138 -6.044125 7.338667 -11.605045 1.152726 1.102480 -8.510101 -4.989517 -0.000002 0.000001 0.000005 2.269180 -3.091011 8.738208 0.014399 -0.263930 18.565706 0.033564 -0.192357 14.572250 -0.000001 -0.000002 0.000003 -1.980538 -5.036744 13.853569 0.105520 -0.638999 26.602718 0.021936 -0.055279 11.894885 0.000000 0.000001 -0.000006 -4.930261 -9.222378 11.303571 -0.036226 -0.348557 32.471317 0.126757 -0.710015 15.658588 -0.000001 -0.000001 -0.000007 -6.556736 -10.296721 23.511335 0.059806 -0.258952 33.905677 0.029020 -0.147468 15.253931 -0.000001 0.000002 0.000004 4.978580 13.355523 28.003166 24.017317 18.538896 -0.885664 -3.152157 11.984165 -39.690035 -10.202013 0.482654 -1.799538 -0.000000 -0.000001 -0.000000 -29.818690 -23.649124 -15.126868 26.426871 -6.863026 1.314437 -1.627513 0.285622 7.240425 -0.332743 -10.347382 5.849223 0.000000 0.000001 0.000000 
-3.447784 86.525772 5.161388 173.778235 -50.726428 170.247711 11.498039 -1.498377 1.239416 -2.125161 -2.665120 2.400943 -2.085778 -2.335973 2.605806 -4.857949 9.936421 3.397873 -1.224083 11.026411 -1.012503 -0.000000 -0.000000 -0.000001 0.631246 3.383865 -10.356364 -1.075443 -11.832569 -62.147078 3.424255 -14.184245 -6.516012 -5.836993 -0.033137 17.177137 -4.617538 11.898337 11.596264 4.705871 9.452305 0.942814 2.802578 8.618258 2.856919 0.000004 0.000000 -0.000006 -3.452023 -1.694380 -33.444923 0.009410 0.086357 -31.040642 0.008486 0.051936 -25.046104 -0.000000 -0.000002 -0.000004 -1.619787 -1.434451 -26.469713 -0.017524 0.115804 -28.608283 0.064345 0.229047 -23.213817 -0.000001 0.000002 0.000002 -0.551501 -2.446107 -23.820235 0.036151 0.221005 -24.694119 0.019805 0.019377 -19.977964 0.000003 -0.000000 0.000004 1.431446 -3.675811 -19.753421 -0.025548 0.126078 -20.705228 0.022516 0.076438 -19.369156 0.000000 0.000001 0.000002 0.776608 0.430613 16.788820 15.216505 26.473012 45.774886 14.708257 26.114236 -6.542858 -22.168441 2.207702 -17.888395 -0.487497 -9.544652 -6.033348 7.310381 -11.603371 1.115180 1.095774 -8.420822 -4.937686 -0.000001 -0.000001 0.000002 2.247947 -2.960579 8.850376 0.013947 -0.263213 18.553008 0.033331 -0.191490 14.601012 -0.000002 -0.000001 -0.000001 -1.981756 -4.869446 13.915274 0.104071 -0.632863 26.503502 0.021612 -0.054755 11.951627 0.000002 0.000002 -0.000004 -4.929593 -8.975033 11.411250 -0.036253 -0.347811 32.314731 0.126806 -0.709045 15.681097 0.000001 -0.000004 -0.000004 -6.601427 -9.992625 23.503081 0.059139 -0.258266 33.738628 0.028730 -0.146345 15.286942 0.000002 -0.000002 -0.000001 5.217415 14.051567 30.714620 26.949823 19.021040 -1.242807 1.423913 9.463779 -41.917390 -13.572614 0.462764 -2.934898 -0.000000 0.000001 -0.000000 -29.438628 -22.575893 -11.972812 28.394256 -5.518676 1.142788 -2.840464 0.476653 5.752990 -0.842533 -10.260715 3.853154 -0.000000 -0.000000 0.000000 
